<svg data-v-0dd9719b="" version="1.0" xmlns="http://www.w3.org/2000/svg" xmlns:xlink="http://www.w3.org/1999/xlink" width="100%" height="100%" viewBox="0 0 340.000000 250.000000" preserveAspectRatio="xMidYMid meet" color-interpolation-filters="sRGB" style="margin: auto;"> <rect data-v-0dd9719b="" x="0" y="0" width="100%" height="100%" fill="#fff" fill-opacity="1" class="background"></rect> <rect data-v-0dd9719b="" x="0" y="0" width="100%" height="100%" fill="url(#watermark)" fill-opacity="1" class="watermarklayer"></rect> <g data-v-0dd9719b="" fill="#333333" class="icon-text-wrapper icon-svg-group iconsvg" transform="translate(49.332977294921875,96.80374908447266)"><g class="iconsvg-imagesvg" transform="translate(0,1.9359703063964844)"><g><rect fill="#333333" fill-opacity="0" stroke-width="2" x="0" y="0" width="60" height="52.52054866466506" class="image-rect"></rect> <svg x="0" y="0" width="60" height="52.52054866466506" filtersec="colorsb8264535170" class="image-svg-svg primary" style="overflow: visible;"><svg xmlns="http://www.w3.org/2000/svg" viewBox="0 -0.03111111745238304 114.26000213623047 100.01667022705078"><g><g><path d="M37.15 0c5.35 0 10.69-.07 16 0-3.68 6.6-7.54 13.1-11.29 19.66-8.57 14.91-17.12 29.8-25.75 44.66q-8.05.14-16.11 0c.73-1.47 1.59-2.87 2.41-4.3L35.38 3a31.38 31.38 0 0 1 1.77-3zM49.66 17.83q8-.07 16.09 0C72 28.32 77.9 39 84.1 49.45c1.84 3.25 3.75 6.47 5.56 9.73a52.48 52.48 0 0 1 2.9 5.17c-5.32.15-10.65 0-16 .05-.32-.47-.63-.94-.92-1.42C67 47.91 58.27 32.92 49.66 17.83zM10.25 86.05q37.14-.08 74.29 0c1.74 2.82 3.34 5.73 5 8.58 1 1.77 2.12 3.48 3 5.32-24.73.08-49.46 0-74.18 0-2.77-4.57-5.45-9.23-8.11-13.9z" fill="#27559a"></path><path d="M57.67.09c5.35-.12 10.7 0 16 0-1.81 3.21-3.67 6.4-5.49 9.6A40.16 40.16 0 0 1 65.62 14c-5.23 0-10.46.07-15.69 0a40.74 40.74 0 0 1 3-5.65C54.53 5.57 56 2.77 57.67.09zM75 5.54c.69-1.22 1.35-2.46 2.16-3.61 3.68 6.12 7.14 12.36 10.76 18.5 2.63 4.64 5.38 9.21 8 13.88 2.49 3.92 4.6 8.07 7 12.06 3.16 5.16 6 10.47 9.16 15.65a35.43 35.43 0 0 1 2.18 4.19c-.72 2.11-2.18 3.9-3.18 5.89-1.64 2.68-3 5.54-4.79 8.11-5.72-9.77-11.34-19.6-17-29.38a98.98 98.98 0 0 0-4.34-7.55q-7.53-13-15.06-26.07c-.24-.43-.45-.86-.67-1.3C71 12.41 73 9 75 5.54zM.07 68.18c5.33-.05 10.67-.08 16 0 1.9 3.11 3.63 6.32 5.48 9.46A33.54 33.54 0 0 1 23.9 82c-5.3 0-10.61.07-15.92 0-2-3.16-3.7-6.45-5.61-9.65a36.45 36.45 0 0 1-2.3-4.17zM38.89 68.31a9 9 0 0 1 2.26-.17c17.11.07 34.22-.06 51.33.07-1.67 3.54-3.88 6.8-5.76 10.24-.8 1.26-1.31 2.76-2.44 3.77a13.25 13.25 0 0 1-2 .08c-17.13-.07-34.27.06-51.41-.06a31 31 0 0 1 2.53-4.8c1.4-2.43 2.84-4.84 4.2-7.29a8.09 8.09 0 0 1 1.29-1.84zM90.87 78.87c1.68-2.86 3.25-5.79 5-8.61 2.4 3.86 4.57 7.86 6.93 11.75a8.21 8.21 0 0 1 1.05 2.17 12.7 12.7 0 0 1-1 1.94c-2.36 3.94-4.57 8-6.92 11.92-2.63-4.64-5.42-9.19-8-13.86a47.17 47.17 0 0 1 2.94-5.31z" fill="#34b2e1"></path><path d="M30.74 46.58c5.18-9 10.32-18 15.55-26.9q4.11 6.91 8.05 13.94C50.64 40.26 46.74 46.8 43 53.4c-5.19 8.92-10.3 17.86-15.49 26.76-1.81-2.76-3.33-5.71-5-8.54-1-1.81-2.16-3.53-3-5.4 3.62-6.59 7.49-13.09 11.23-19.64z" fill="#1978b7"></path></g></g></svg></svg> <!----></g></g> <g transform="translate(67,0)"><g data-gra="path-name" fill-rule="" class="tp-name iconsvg-namesvg" transform="translate(0,0)"><g transform="scale(1)"><g><path d="M40.78-27.38L30.5-27.38 30.45-26.1Q30.41-20.04 29.88-15.69L29.88-15.69Q33.53-5.93 42.32-0.79L42.32-0.79Q43.33-0.13 43.33 1.01L43.33 1.01Q43.33 2.94 41.22 2.94L41.22 2.94Q38.98 2.94 34.89-1.52 30.81-5.98 28.83-10.68L28.83-10.68Q26.72-3.3 19.6 1.23L19.6 1.23Q16.57 3.16 15.25 3.16L15.25 3.16Q13.4 3.16 13.4 1.23L13.4 1.23Q13.4-0.09 15.12-0.83L15.12-0.83Q23.55-4.57 25.71-11.82L25.71-11.82Q26.81-15.86 26.81-26.06L26.81-26.06 26.85-27.38 18.5-27.38Q16.26-27.38 16.26-29.22 16.26-31.07 18.5-31.07L18.5-31.07 26.85-31.07 26.85-31.64 26.81-35.68Q26.76-37.84 28.7-37.84L28.7-37.84Q30.54-37.84 30.54-35.73L30.54-35.73 30.54-34.1 30.5-31.95 30.5-31.07 40.78-31.07Q43.02-31.07 43.02-29.22 43.02-27.38 40.78-27.38L40.78-27.38ZM20.26-21.62L20.26-21.62 18.06-21.62Q16.61-21.62 16.61-23.07L16.61-23.07Q16.61-24.57 18.11-24.57L18.11-24.57 20.7-24.57Q22.02-24.57 22.37-23.82L22.37-23.82Q22.63-23.2 22.72-20.92L22.72-20.92Q23.12-16.79 24.7-14.37L24.7-14.37Q25.22-13.58 25.22-13.14L25.22-13.14Q25.22-11.29 23.77-11.29L23.77-11.29Q21.93-11.29 21.05-17.62L21.05-17.62Q19.34-10.72 17.71-10.72L17.71-10.72Q16.39-10.72 16.39-12.35L16.39-12.35Q16.39-12.92 17.01-13.8L17.01-13.8Q19.51-17.8 20.26-21.62ZM36.65-21.62L36.65-21.62 34.32-21.62Q32.87-21.62 32.87-23.07L32.87-23.07Q32.87-24.57 34.32-24.57L34.32-24.57 36.96-24.57Q38.36-24.52 38.85-23.73L38.85-23.73Q39.07-23.33 39.11-21.58L39.11-21.58Q39.24-16.66 42.41-12.7L42.41-12.7Q42.76-12.22 42.76-11.73L42.76-11.73Q42.76-10.15 41.26-10.15L41.26-10.15Q39.29-10.15 37.49-16.79L37.49-16.79Q35.86-10.46 34.06-10.46L34.06-10.46Q32.7-10.46 32.7-11.95L32.7-11.95Q32.7-12.35 33.09-13.01L33.09-13.01Q35.9-17.67 36.65-21.62ZM3.87 1.63L3.87-32.12Q3.74-36.25 7.78-36.08L7.78-36.08 13.36-36.08Q16.96-36.08 16.96-33.75L16.96-33.75Q16.96-32.17 12.61-23.51L12.61-23.51Q12.13-22.54 12.13-21.88L12.13-21.88Q12.13-21.58 12.57-20.92L12.57-20.92Q15.95-16.3 15.95-11.91L15.95-11.91Q15.95-5.58 9.93-5.58L9.93-5.58Q8.09-5.58 8.09-7.6L8.09-7.6Q8.09-9.23 9.8-9.36L9.8-9.36Q12.7-9.58 12.7-12.13L12.7-12.13Q12.7-15.95 9.58-20.21L9.58-20.21Q9.05-20.87 9.05-21.62L9.05-21.62Q9.05-22.5 10.26-25.11 11.47-27.73 12.24-29.77 13.01-31.82 13.01-31.99L13.01-31.99Q13.01-32.78 11.65-32.78L11.65-32.78 8.66-32.78Q7.29-32.78 7.25-31.38L7.25-31.38 7.25 1.63Q7.25 3.6 5.54 3.6L5.54 3.6Q3.87 3.6 3.87 1.63L3.87 1.63ZM85.87-31.46L73.13-31.46 73.13-25.22 81.56-25.22Q86.53-25.4 86.18-20.61L86.18-20.61 86.18-2.72Q86.53 2.07 81.56 1.89L81.56 1.89 53.48 1.89Q48.47 2.07 48.87-2.72L48.87-2.72 48.87-20.61Q48.52-25.4 53.48-25.22L53.48-25.22 60.16-25.22 60.16-31.46 49.13-31.46Q46.8-31.46 46.8-33.35 46.8-35.24 49.13-35.24L49.13-35.24 85.87-35.24Q88.2-35.24 88.2-33.35 88.2-31.46 85.87-31.46L85.87-31.46ZM80.38-21.62L73.13-21.62 73.13-12Q73.13-11.03 75.5-11.03L75.5-11.03Q77.39-11.03 77.43-13.23 77.48-15.42 79.15-15.42 80.82-15.42 80.82-13.8L80.82-13.8Q80.82-8.44 78.27-7.78L78.27-7.78Q77.17-7.51 75.15-7.51L75.15-7.51Q71.5-7.51 70.58-8.2 69.65-8.88 69.57-10.33L69.57-10.33 69.57-21.62 63.59-21.62Q63.33-15.16 62.27-12.59 61.22-10.02 59.3-8.28 57.39-6.55 56.12-6.55L56.12-6.55Q54.36-6.55 54.36-8.53L54.36-8.53Q54.36-9.58 55.72-10.55L55.72-10.55Q57.83-12.08 58.84-14.06 59.85-16.04 60.07-21.62L60.07-21.62 54.76-21.62Q52.78-21.62 52.78-19.64L52.78-19.64 52.78-3.82Q52.78-1.85 54.76-1.85L54.76-1.85 80.29-1.85Q82.27-1.85 82.27-3.82L82.27-3.82 82.27-19.64Q82.22-21.58 80.38-21.62L80.38-21.62ZM63.68-25.22L69.57-25.22 69.57-31.46 63.72-31.46 63.68-25.22ZM123.84-2.68L123.79-19.6Q121.25-14.46 117.25-9.78 113.25-5.1 111.71-5.1L111.71-5.1Q109.82-5.1 109.82-7.03L109.82-7.03Q109.82-7.95 111.23-9.1L111.23-9.1Q118.87-15.42 123.4-25.22L123.4-25.22 112.98-25.22Q110.92-25.22 110.92-27.07L110.92-27.07Q110.92-28.96 112.98-28.96L112.98-28.96 123.75-28.96 123.75-35.64Q123.75-37.79 125.68-37.79 127.62-37.79 127.62-35.6L127.62-35.6 127.62-28.96 131.35-28.96Q133.2-28.96 133.2-27.07L133.2-27.07Q133.2-25.22 131.35-25.22L131.35-25.22 127.62-25.22 127.71-1.41Q127.66 3.52 122.7 3.25L122.7 3.25 119.53 3.25Q117.25 3.25 117.25 1.27 117.25-0.7 119.4-0.7L119.4-0.7 121.82-0.7Q123.79-0.75 123.84-2.68L123.84-2.68ZM109.6-32.08L109.6-32.08 109.6-11.07Q109.86-6.9 105.69-7.16L105.69-7.16 98.57-7.16Q94.39-6.9 94.66-11.07L94.66-11.07 94.66-32.08Q94.39-36.25 98.57-35.99L98.57-35.99 105.69-35.99Q109.86-36.25 109.6-32.08ZM106.13-16.22L98.13-16.22 98.13-11.78Q98.17-10.37 99.62-10.33L99.62-10.33 104.63-10.33Q106.08-10.37 106.13-11.78L106.13-11.78 106.13-16.22ZM98.13-24.57L98.13-19.29 106.13-19.29 106.13-24.57 98.13-24.57ZM98.13-31.38L98.13-27.64 106.13-27.64 106.13-31.38Q106.08-32.78 104.63-32.83L104.63-32.83 99.62-32.83Q98.17-32.78 98.13-31.38L98.13-31.38ZM105.86-6.37L105.86-6.37Q106.79-6.37 107.97-4.88L107.97-4.88 109.03-3.56Q111.05-1.1 111.05-0.18L111.05-0.18Q111.05 1.54 109.25 1.54L109.25 1.54Q108.19 1.54 106.81-0.62 105.42-2.77 104.72-3.74L104.72-3.74Q104.24-4.39 104.24-4.88L104.24-4.88Q104.24-6.37 105.86-6.37ZM98.44-6.33L98.44-6.33Q100.15-6.33 100.15-4.66L100.15-4.66Q100.15-3.56 97.4-0.35 94.66 2.86 93.56 2.86L93.56 2.86Q91.8 2.86 91.8 1.05L91.8 1.05Q91.8 0.22 93.6-1.58L93.6-1.58Q95.05-3.03 96.26-4.68 97.47-6.33 98.44-6.33ZM157.15-12.96L157.15-12.96Q158.25-12.96 159.92-10.83 161.59-8.7 161.59-7.82L161.59-7.82Q161.59-5.76 159.57-5.76L159.57-5.76Q158.29-5.76 156.8-8.31L156.8-8.31 156.01-9.58Q155.26-10.68 155.26-11.21L155.26-11.21Q155.26-12.96 157.15-12.96ZM169.63-14.68L169.63-14.68 145.37-14.68Q140.49-14.37 140.8-19.29L140.8-19.29 140.8-31.46Q140.54-36.39 145.37-36.08L145.37-36.08 169.63-36.08Q174.51-36.39 174.2-31.46L174.2-31.46 174.2-19.29Q174.46-14.37 169.63-14.68ZM159.21-27.16L170.46-27.16 170.46-30.89Q170.46-32.78 168.57-32.78L168.57-32.78 159.21-32.78 159.21-27.16ZM170.46-19.86L170.46-23.99 159.21-23.99 159.21-17.97 168.57-17.97Q170.46-17.97 170.46-19.86L170.46-19.86ZM155.65-27.16L155.65-32.78 146.47-32.78Q144.54-32.78 144.54-30.89L144.54-30.89 144.54-27.16 155.65-27.16ZM146.47-17.97L155.65-17.97 155.65-23.99 144.54-23.99 144.54-19.86Q144.54-17.97 146.47-17.97L146.47-17.97ZM142.08-10.72L142.08-10.72Q143.96-10.72 143.96-8.79L143.96-8.79Q143.96-7.51 142.23-3.19 140.49 1.14 138.82 1.14L138.82 1.14Q136.8 1.14 136.8-0.83L136.8-0.83Q136.8-1.49 137.55-2.75 138.3-4 138.96-5.6 139.61-7.21 140.1-9.05L140.1-9.05Q140.54-10.72 142.08-10.72ZM171.34-10.77L171.34-10.77Q172.75-10.77 175.47-6.7 178.2-2.64 178.2-1.8L178.2-1.8Q178.2 0.31 176.09 0.31L176.09 0.31Q174.77 0.31 173.89-1.36 173.01-3.03 172.05-4.64 171.08-6.24 170.29-7.36 169.5-8.48 169.5-9.01L169.5-9.01Q169.5-10.77 171.34-10.77ZM147.7-0.79L147.7-10.11Q147.7-12.35 149.59-12.35L149.59-12.35Q151.44-12.35 151.44-10.11L151.44-10.11 151.44-2.46Q151.52-1.14 154.25-1.14L154.25-1.14Q154.29-1.19 155.7-1.1L155.7-1.1 157.59-1.05Q162.29-1.05 163.26-1.49L163.26-1.49Q164.09-1.85 164.38-4.13 164.66-6.42 166.38-6.42L166.38-6.42Q168.35-6.42 168.35-4.39L168.35-4.39Q168.35-0.35 166.84 1.08 165.32 2.5 157.54 2.5L157.54 2.5Q153.59 2.5 150.64 2.13 147.7 1.76 147.7-0.79L147.7-0.79Z" transform="translate(-3.8659472465515137, 37.84000015258789)"></path></g> <!----> <!----> <!----> <!----> <!----> <!----> <!----></g></g> <g data-gra="path-slogan" fill-rule="" class="tp-slogan iconsvg-slogansvg" fill="#333333" transform="translate(5,47.439998626708984)"><rect x="0" height="1" y="3.9750003814697266" width="36.48619842529297"></rect> <rect height="1" y="3.9750003814697266" width="36.48619842529297" x="127.84784698486328"></rect> <g transform="translate(39.48619842529297,0)"><g transform="scale(1)"><path d="M7.17-6.09L7.17-6.09L6.09-6.09Q6-7.73 3.94-7.83L3.94-7.83Q2.02-7.78 2.02-6.33L2.02-6.33Q2.02-5.39 3.05-5.25L3.05-5.25L5.48-4.69Q7.41-4.22 7.41-2.34L7.41-2.34Q7.36 0.05 4.03 0.14L4.03 0.14Q2.20 0.14 1.45-0.61L1.45-0.61Q0.52-1.31 0.56-2.77L0.56-2.77L1.69-2.77Q1.73-0.80 4.03-0.75L4.03-0.75Q6.28-0.80 6.33-2.20L6.33-2.20Q6.52-3.38 4.45-3.75L4.45-3.75L2.67-4.13Q0.84-4.64 0.84-6.19L0.84-6.19Q0.98-8.72 3.84-8.81L3.84-8.81Q7.08-8.81 7.17-6.09ZM10.03-5.06L14.53-5.06L14.53-8.58L15.70-8.58L15.70 0L14.53 0L14.53-3.98L10.03-3.98L10.03 0L8.86 0L8.86-8.58L10.03-8.58L10.03-5.06ZM23.16 0L22.31-2.48L18.84-2.48L17.95 0L16.78 0L20.02-8.58L21.33-8.58L24.42 0L23.16 0ZM20.58-7.31L19.22-3.52L21.89-3.52L20.63-7.31L20.58-7.31ZM31.13 0L30.28-2.48L26.81-2.48L25.92 0L24.75 0L27.98-8.58L29.30-8.58L32.39 0L31.13 0ZM28.55-7.31L27.19-3.52L29.86-3.52L28.59-7.31L28.55-7.31ZM34.83-8.58L39.14-1.64L39.14-8.58L40.27-8.58L40.27 0L38.95 0L34.59-6.94L34.55-6.94L34.55 0L33.42 0L33.42-8.58L34.83-8.58ZM48.80-8.58L45.89-4.41L48.94 0L47.48 0L45.14-3.52L42.80 0L41.39 0L44.48-4.41L41.58-8.58L43.03-8.58L45.19-5.30L47.39-8.58L48.80-8.58ZM50.20-8.58L51.38-8.58L51.38 0L50.20 0L50.20-8.58ZM63.84-6.05L63.84-6.05L62.72-6.05Q62.30-7.78 60.33-7.83L60.33-7.83Q57.61-7.69 57.52-4.36L57.52-4.36Q57.52-0.80 60.38-0.80L60.38-0.80Q62.34-0.84 62.81-3.19L62.81-3.19L63.94-3.19Q63.42 0.05 60.14 0.14L60.14 0.14Q56.39 0 56.30-4.31L56.30-4.31Q56.48-8.63 60.33-8.81L60.33-8.81Q63.38-8.72 63.84-6.05ZM70.97 0L70.13-2.48L66.66-2.48L65.77 0L64.59 0L67.83-8.58L69.14-8.58L72.23 0L70.97 0ZM68.39-7.31L67.03-3.52L69.70-3.52L68.44-7.31L68.39-7.31ZM73.45-8.58L74.63-8.58L74.63 0L73.45 0L73.45-8.58ZM82.88-6.09L82.88-6.09L81.80-6.09Q81.70-7.73 79.64-7.83L79.64-7.83Q77.72-7.78 77.72-6.33L77.72-6.33Q77.72-5.39 78.75-5.25L78.75-5.25L81.19-4.69Q83.11-4.22 83.11-2.34L83.11-2.34Q83.06 0.05 79.73 0.14L79.73 0.14Q77.91 0.14 77.16-0.61L77.16-0.61Q76.22-1.31 76.27-2.77L76.27-2.77L77.39-2.77Q77.44-0.80 79.73-0.75L79.73-0.75Q81.98-0.80 82.03-2.20L82.03-2.20Q82.22-3.38 80.16-3.75L80.16-3.75L78.38-4.13Q76.55-4.64 76.55-6.19L76.55-6.19Q76.69-8.72 79.55-8.81L79.55-8.81Q82.78-8.81 82.88-6.09ZM84.75-8.58L85.92-8.58L85.92 0L84.75 0L84.75-8.58Z" transform="translate(-0.5602678571428572, 8.8125)"></path></g></g></g></g></g><defs v-gra="od"></defs></svg>